<svg width="41" height="12" viewBox="0 0 41 12" fill="none" xmlns="http://www.w3.org/2000/svg">
<g clip-path="url(#clip0_93_6)">
<rect width="2.16404" height="10.8901" rx="1.08202" transform="matrix(-0.823194 0.56776 -0.832264 -0.55438 11.0002 10.8606)" fill="white"/>
<rect width="2.17803" height="10.5759" rx="1.08901" transform="matrix(0.832264 0.55438 -0.823194 0.56776 8.70605 0)" fill="white"/>
<path d="M14.8789 10V1.46875H17.8672C18.9023 1.46875 19.6875 1.66797 20.2227 2.06641C20.7578 2.46094 21.0254 3.04102 21.0254 3.80664C21.0254 4.22461 20.918 4.59375 20.7031 4.91406C20.4883 5.23047 20.1895 5.46289 19.8066 5.61133C20.2441 5.7207 20.5879 5.94141 20.8379 6.27344C21.0918 6.60547 21.2188 7.01172 21.2188 7.49219C21.2188 8.3125 20.957 8.93359 20.4336 9.35547C19.9102 9.77734 19.1641 9.99219 18.1953 10H14.8789ZM16.6367 6.28516V8.58789H18.1426C18.5566 8.58789 18.8789 8.49023 19.1094 8.29492C19.3438 8.0957 19.4609 7.82227 19.4609 7.47461C19.4609 6.69336 19.0566 6.29688 18.248 6.28516H16.6367ZM16.6367 5.04297H17.9375C18.8242 5.02734 19.2676 4.67383 19.2676 3.98242C19.2676 3.5957 19.1543 3.31836 18.9277 3.15039C18.7051 2.97852 18.3516 2.89258 17.8672 2.89258H16.6367V5.04297ZM26.1055 10C26.0273 9.84766 25.9707 9.6582 25.9355 9.43164C25.5254 9.88867 24.9922 10.1172 24.3359 10.1172C23.7148 10.1172 23.1992 9.9375 22.7891 9.57812C22.3828 9.21875 22.1797 8.76562 22.1797 8.21875C22.1797 7.54688 22.4277 7.03125 22.9238 6.67188C23.4238 6.3125 24.1445 6.13086 25.0859 6.12695H25.8652V5.76367C25.8652 5.4707 25.7891 5.23633 25.6367 5.06055C25.4883 4.88477 25.252 4.79688 24.9277 4.79688C24.6426 4.79688 24.418 4.86523 24.2539 5.00195C24.0938 5.13867 24.0137 5.32617 24.0137 5.56445H22.3203C22.3203 5.19727 22.4336 4.85742 22.6602 4.54492C22.8867 4.23242 23.207 3.98828 23.6211 3.8125C24.0352 3.63281 24.5 3.54297 25.0156 3.54297C25.7969 3.54297 26.416 3.74023 26.873 4.13477C27.334 4.52539 27.5645 5.07617 27.5645 5.78711V8.53516C27.5684 9.13672 27.6523 9.5918 27.8164 9.90039V10H26.1055ZM24.7051 8.82227C24.9551 8.82227 25.1855 8.76758 25.3965 8.6582C25.6074 8.54492 25.7637 8.39453 25.8652 8.20703V7.11719H25.2324C24.3848 7.11719 23.9336 7.41016 23.8789 7.99609L23.873 8.0957C23.873 8.30664 23.9473 8.48047 24.0957 8.61719C24.2441 8.75391 24.4473 8.82227 24.7051 8.82227ZM31.502 8.75195C31.8145 8.75195 32.0684 8.66602 32.2637 8.49414C32.459 8.32227 32.5605 8.09375 32.5684 7.80859H34.1562C34.1523 8.23828 34.0352 8.63281 33.8047 8.99219C33.5742 9.34766 33.2578 9.625 32.8555 9.82422C32.457 10.0195 32.0156 10.1172 31.5312 10.1172C30.625 10.1172 29.9102 9.83008 29.3867 9.25586C28.8633 8.67773 28.6016 7.88086 28.6016 6.86523V6.75391C28.6016 5.77734 28.8613 4.99805 29.3809 4.41602C29.9004 3.83398 30.6133 3.54297 31.5195 3.54297C32.3125 3.54297 32.9473 3.76953 33.4238 4.22266C33.9043 4.67188 34.1484 5.27148 34.1562 6.02148H32.5684C32.5605 5.69336 32.459 5.42773 32.2637 5.22461C32.0684 5.01758 31.8105 4.91406 31.4902 4.91406C31.0957 4.91406 30.7969 5.05859 30.5938 5.34766C30.3945 5.63281 30.2949 6.09766 30.2949 6.74219V6.91797C30.2949 7.57031 30.3945 8.03906 30.5938 8.32422C30.793 8.60938 31.0957 8.75195 31.502 8.75195ZM37.4258 7.45703L36.8164 8.06641V10H35.123V1H36.8164V5.98633L37.1445 5.56445L38.7676 3.66016H40.8008L38.5098 6.30273L41 10H39.0547L37.4258 7.45703Z" fill="white"/>
</g>
<defs>
<clipPath id="clip0_93_6">
<rect width="41" height="12" fill="white"/>
</clipPath>
</defs>
</svg>
