<svg width="120" height="80" viewBox="0 0 120 80" fill="none" xmlns="http://www.w3.org/2000/svg">
<rect x="12" y="12" width="11" height="47" rx="5" fill="white"/>
<rect x="14" y="59" width="11" height="61" rx="5" transform="rotate(-90 14 59)" fill="white"/>
<rect x="12" y="30" width="11" height="76" rx="5" transform="rotate(-90 12 30)" fill="white"/>
<rect x="73.042" y="60.0061" width="11" height="40" rx="5" transform="rotate(-155.91 73.042 60.0061)" fill="white"/>
<rect y="8.14108" width="11" height="23" rx="5" transform="rotate(-47.7398 0 8.14108)" fill="white"/>
<circle cx="28.5" cy="69.5" r="7.5" fill="white"/>
<circle cx="59.5" cy="69.5" r="7.5" fill="white"/>
<path d="M97.7021 68.6846C97.6247 69.7555 97.2282 70.5986 96.5127 71.2139C95.8018 71.8291 94.863 72.1367 93.6963 72.1367C92.4202 72.1367 91.4154 71.7083 90.6816 70.8516C89.9525 69.9902 89.5879 68.8099 89.5879 67.3105V66.7021C89.5879 65.7451 89.7565 64.902 90.0938 64.1729C90.431 63.4437 90.9118 62.8854 91.5361 62.498C92.165 62.1061 92.8942 61.9102 93.7236 61.9102C94.8721 61.9102 95.7972 62.2178 96.499 62.833C97.2008 63.4482 97.6064 64.3118 97.7158 65.4238H95.665C95.6149 64.7812 95.4349 64.3164 95.125 64.0293C94.8197 63.7376 94.3525 63.5918 93.7236 63.5918C93.04 63.5918 92.5273 63.8379 92.1855 64.3301C91.8483 64.8177 91.6751 65.5765 91.666 66.6064V67.3584C91.666 68.4339 91.8278 69.2201 92.1514 69.7168C92.4795 70.2135 92.9945 70.4619 93.6963 70.4619C94.3298 70.4619 94.8014 70.3184 95.1113 70.0312C95.4258 69.7396 95.6058 69.2907 95.6514 68.6846H97.7021ZM103.205 72C103.114 71.8223 103.048 71.6012 103.007 71.3369C102.528 71.8701 101.906 72.1367 101.141 72.1367C100.416 72.1367 99.8145 71.9271 99.3359 71.5078C98.862 71.0885 98.625 70.5599 98.625 69.9219C98.625 69.138 98.9144 68.5365 99.4932 68.1172C100.076 67.6979 100.917 67.486 102.016 67.4814H102.925V67.0576C102.925 66.7158 102.836 66.4424 102.658 66.2373C102.485 66.0322 102.209 65.9297 101.831 65.9297C101.498 65.9297 101.236 66.0094 101.045 66.1689C100.858 66.3285 100.765 66.5472 100.765 66.8252H98.7891C98.7891 66.3968 98.9212 66.0003 99.1855 65.6357C99.4499 65.2712 99.8236 64.9863 100.307 64.7812C100.79 64.5716 101.332 64.4668 101.934 64.4668C102.845 64.4668 103.567 64.6969 104.101 65.1572C104.638 65.613 104.907 66.2555 104.907 67.085V70.291C104.912 70.9928 105.01 71.5238 105.201 71.8838V72H103.205ZM101.571 70.626C101.863 70.626 102.132 70.5622 102.378 70.4346C102.624 70.3024 102.806 70.127 102.925 69.9082V68.6367H102.187C101.198 68.6367 100.671 68.9785 100.607 69.6621L100.601 69.7783C100.601 70.0244 100.687 70.2272 100.86 70.3867C101.034 70.5462 101.271 70.626 101.571 70.626ZM110.581 66.4561C110.312 66.4196 110.075 66.4014 109.87 66.4014C109.123 66.4014 108.633 66.6543 108.4 67.1602V72H106.425V64.6035H108.291L108.346 65.4854C108.742 64.8063 109.291 64.4668 109.993 64.4668C110.212 64.4668 110.417 64.4964 110.608 64.5557L110.581 66.4561ZM114.245 62.7852V64.6035H115.51V66.0527H114.245V69.7441C114.245 70.0176 114.298 70.2135 114.402 70.332C114.507 70.4505 114.708 70.5098 115.004 70.5098C115.223 70.5098 115.416 70.4938 115.585 70.4619V71.959C115.198 72.0775 114.799 72.1367 114.389 72.1367C113.003 72.1367 112.297 71.4372 112.27 70.0381V66.0527H111.189V64.6035H112.27V62.7852H114.245Z" fill="#FF7676"/>
</svg>
